<svg width="81" height="79" viewBox="0 0 81 79" fill="none" xmlns="http://www.w3.org/2000/svg">
<g clip-path="url(#clip0_46_277)">
<path d="M14.897 0.777472H66.4163C68.2718 0.775723 70.1096 1.13992 71.8242 1.84921C73.5389 2.5585 75.0968 3.59896 76.4089 4.91105C77.721 6.22315 78.7615 7.78111 79.4708 9.49577C80.1801 11.2104 80.5443 13.0481 80.5425 14.9037V64.4287C80.5443 66.2843 80.1801 68.122 79.4708 69.8366C78.7615 71.5513 77.721 73.1093 76.4089 74.4213C75.0968 75.7334 73.5389 76.7739 71.8242 77.4832C70.1096 78.1925 68.2718 78.5567 66.4163 78.5549H14.897C13.0414 78.5567 11.2037 78.1925 9.48906 77.4832C7.77439 76.7739 6.21643 75.7334 4.90434 74.4213C3.59225 73.1093 2.55178 71.5513 1.84249 69.8366C1.1332 68.122 0.769009 66.2843 0.770758 64.4287V14.9037C0.769009 13.0481 1.1332 11.2104 1.84249 9.49577C2.55178 7.78111 3.59225 6.22315 4.90434 4.91105C6.21643 3.59896 7.77439 2.5585 9.48906 1.84921C11.2037 1.13992 13.0414 0.775723 14.897 0.777472V0.777472Z" fill="#00005B"/>
<path d="M32.8125 47.311H20.4479L17.9218 55.1552C17.8935 55.2976 17.8131 55.4242 17.6962 55.5103C17.5794 55.5964 17.4346 55.6357 17.2902 55.6205H11.0414C10.6758 55.6205 10.5761 55.4211 10.6758 55.0222L21.3785 24.3434C21.4782 24.011 21.578 23.7118 21.7109 23.313C21.8447 22.6006 21.9114 21.8773 21.9103 21.1525C21.9004 21.0692 21.9222 20.9853 21.9716 20.9175C22.0209 20.8497 22.094 20.803 22.1762 20.7869H30.7849C31.0176 20.7869 31.1838 20.8866 31.217 21.0528L43.349 55.122C43.4487 55.4876 43.349 55.6538 43.0166 55.6538H36.0698C35.9523 55.6651 35.8346 55.6346 35.7374 55.5678C35.6401 55.5009 35.5695 55.4019 35.538 55.2882L32.8125 47.311ZM22.3757 40.6966H30.8182C30.6188 39.9986 30.3528 39.1676 30.0537 38.3034C29.7546 37.4392 29.4554 36.4421 29.1563 35.4449C28.8571 34.4478 28.5247 33.4174 28.1924 32.387C27.86 31.3566 27.5608 30.3927 27.2949 29.4288C27.029 28.4649 26.7964 27.6339 26.5637 26.8362H26.4972C26.1985 28.2849 25.8212 29.7162 25.3671 31.124C24.8685 32.7194 24.37 34.3813 23.8382 36.0432C23.4061 37.7384 22.8742 39.3006 22.3757 40.6966Z" fill="#9999FF"/>
<path d="M63.0593 44.253H52.5228C52.6485 45.3019 53.0001 46.3112 53.5532 47.2112C54.1406 48.1071 54.9869 48.8027 55.9796 49.2055C57.3231 49.7801 58.7731 50.0633 60.2341 50.0365C61.3947 50.0152 62.5514 49.8929 63.6908 49.6709C64.7045 49.5381 65.698 49.2814 66.649 48.9064C66.8152 48.7734 66.9149 48.8399 66.9149 49.1723V54.2577C66.9091 54.3929 66.8868 54.5268 66.8485 54.6566C66.7884 54.7499 66.7091 54.8292 66.6158 54.8893C65.5527 55.3561 64.4365 55.691 63.292 55.8864C61.7372 56.1854 60.1551 56.3191 58.5721 56.2853C56.046 56.2853 53.9188 55.8864 52.1904 55.1219C50.564 54.416 49.1286 53.3337 48.0024 51.9643C46.95 50.6838 46.1697 49.2022 45.7089 47.6101C44.735 44.2941 44.7813 40.7617 45.8419 37.4724C46.3719 35.8082 47.2184 34.262 48.3348 32.9188C49.434 31.5906 50.8055 30.5137 52.3566 29.7612C53.9188 28.9967 55.7801 28.7308 57.9074 28.7308C59.6797 28.6896 61.4391 29.0415 63.0593 29.7612C64.421 30.3515 65.6187 31.264 66.5493 32.4202C67.4328 33.5555 68.108 34.8384 68.5436 36.2094C68.9663 37.5194 69.1794 38.8879 69.1751 40.2644C69.1751 41.0622 69.1419 41.7602 69.1087 42.3917C69.0754 43.0232 69.0089 43.4885 68.9757 43.7877C68.9611 43.9028 68.9065 44.0092 68.8214 44.0881C68.7364 44.1671 68.6263 44.2137 68.5104 44.2198C68.3109 44.2198 67.9453 44.253 67.4135 44.2863C66.7736 44.3589 66.1297 44.3922 65.4857 44.386C64.7212 44.386 63.9235 44.253 63.0593 44.253ZM52.5228 39.4002H59.5361C60.4002 39.4002 61.0318 39.4002 61.4306 39.367C61.7038 39.3443 61.9668 39.2528 62.1951 39.1011V38.7687C62.1965 38.3506 62.1291 37.9351 61.9957 37.5389C61.7047 36.6294 61.1258 35.8392 60.3464 35.2876C59.5669 34.736 58.6292 34.4529 57.6747 34.481C56.7726 34.4304 55.8752 34.642 55.0908 35.0903C54.3063 35.5385 53.6684 36.2042 53.254 37.0071C52.8663 37.7535 52.6184 38.5646 52.5228 39.4002V39.4002Z" fill="#9999FF"/>
</g>
<defs>
<clipPath id="clip0_46_277">
<rect width="79.7718" height="77.7775" fill="white" transform="translate(0.770752 0.777466)"/>
</clipPath>
</defs>
</svg>
