<svg width="78" height="78" viewBox="0 0 78 78" fill="none" xmlns="http://www.w3.org/2000/svg">
<rect width="78" height="78" rx="10" fill="#676767"/>
<path d="M63.8563 41.2008C63.5689 39.1778 62.8682 37.2593 61.7732 35.4992C60.8182 33.9632 59.5928 32.597 58.1302 31.4359L58.1341 31.4322L42.773 19.634C42.7602 19.6229 42.7471 19.6125 42.7384 19.6065C42.2276 19.2153 41.5361 19 40.792 19C40.047 19 39.3285 19.2158 38.7699 19.6077C38.1693 20.0272 37.826 20.5838 37.8021 21.1764C37.7801 21.7291 38.0438 22.261 38.5465 22.6758C39.5352 23.4557 40.5217 24.2529 41.5094 25.0508C42.468 25.8256 43.4557 26.6235 44.4387 27.4003L25.6238 27.3875C23.4721 27.3875 22.007 28.3979 21.7057 30.0895C21.5732 30.8304 21.8069 31.6451 22.3293 32.2691C22.8836 32.9306 23.6883 33.2955 24.5951 33.2955L26.0294 33.2963C28.0109 33.2963 30.0011 33.2916 31.9886 33.2868L33.884 33.2823L16.808 45.9157L16.7402 45.9652C15.7864 46.6964 15.1619 47.7213 15.0272 48.7771C14.9251 49.577 15.1117 50.308 15.5671 50.8918C16.1098 51.5877 16.9572 51.9705 17.9533 51.9705C18.9318 51.9705 19.9303 51.5997 20.7661 50.9245L29.9875 43.3779C29.9481 43.7464 29.9002 44.2871 29.9057 44.6795C29.9161 45.3007 30.1155 46.5473 30.4313 47.5593C31.0837 49.6393 32.1827 51.5422 33.6976 53.2134C35.2738 54.952 37.1935 56.3306 39.403 57.3099C41.739 58.343 44.25 58.8675 46.8667 58.8675H46.891C49.5161 58.8611 52.0351 58.3284 54.3786 57.2835C56.5917 56.2926 58.5106 54.9084 60.0809 53.1699C61.5938 51.4903 62.6912 49.5842 63.3424 47.506C63.6642 46.478 63.8716 45.4137 63.9577 44.3414C64.0382 43.303 64.0035 42.2462 63.8563 41.2008ZM47.0581 51.1694C41.2911 51.1694 36.6146 46.986 36.6146 41.8252C36.6146 36.6649 41.2912 32.4815 47.0581 32.4815C52.8251 32.4815 57.5012 36.6649 57.5012 41.8252C57.5013 46.986 52.8251 51.1694 47.0581 51.1694ZM53.0806 41.0041C53.1656 42.5445 52.5503 43.9746 51.47 45.0333C50.371 46.1119 48.8028 46.7893 47.0493 46.7893C45.2963 46.7893 43.728 46.1119 42.6286 45.0333C41.5487 43.9746 40.9347 42.5446 41.0192 41.0053C41.1021 39.5092 41.8319 38.1885 42.9312 37.2533C44.0122 36.3339 45.4638 35.7728 47.0492 35.7728C48.635 35.7728 50.0862 36.334 51.1672 37.2533C52.2668 38.1885 52.9969 39.5083 53.0806 41.0041Z" fill="#CEE393"/>
</svg>
