<svg width="80" height="78" viewBox="0 0 80 78" fill="none" xmlns="http://www.w3.org/2000/svg">
<g clip-path="url(#clip0_46_363)">
<path d="M14.1259 0.000860761H65.6441C67.4996 -0.000888096 69.3373 0.363296 71.0519 1.07257C72.7665 1.78185 74.3244 2.82229 75.6365 4.13435C76.9486 5.44641 77.989 7.00434 78.6983 8.71897C79.4076 10.4336 79.7718 12.2713 79.77 14.1268V63.6507C79.7718 65.5062 79.4076 67.3439 78.6983 69.0585C77.989 70.7731 76.9486 72.3311 75.6365 73.6431C74.3244 74.9552 72.7665 75.9956 71.0519 76.7049C69.3373 77.4142 67.4996 77.7784 65.6441 77.7766H14.1259C12.2704 77.7784 10.4327 77.4142 8.71811 76.7049C7.00349 75.9956 5.44556 74.9552 4.1335 73.6431C2.82143 72.3311 1.78099 70.7731 1.07172 69.0585C0.362442 67.3439 -0.00174259 65.5062 6.26884e-06 63.6507V14.1268C-0.00174259 12.2713 0.362442 10.4336 1.07172 8.71897C1.78099 7.00434 2.82143 5.44641 4.1335 4.13435C5.44556 2.82229 7.00349 1.78185 8.71811 1.07257C10.4327 0.363296 12.2704 -0.000888096 14.1259 0.000860761V0.000860761Z" fill="#000B1D"/>
<path d="M31.5757 63.8169C36.1649 63.8169 39.8851 60.0966 39.8851 55.5075V47.1981H31.5757C26.9866 47.1981 23.2664 50.9184 23.2664 55.5075C23.2664 60.0966 26.9866 63.8169 31.5757 63.8169Z" fill="#0ACF83"/>
<path d="M23.2664 38.8887C23.2664 34.2996 26.9866 30.5793 31.5757 30.5793H39.8851V47.1981H31.5757C26.9866 47.1981 23.2664 43.4779 23.2664 38.8887Z" fill="#A259FF"/>
<path d="M23.2664 22.2699C23.2664 17.6808 26.9866 13.9606 31.5757 13.9606H39.8851V30.5793H31.5757C26.9866 30.5793 23.2664 26.8591 23.2664 22.2699Z" fill="#F24E1E"/>
<path d="M39.885 13.9606H48.1944C52.7835 13.9606 56.5038 17.6808 56.5038 22.2699C56.5038 26.8591 52.7835 30.5793 48.1944 30.5793H39.885V13.9606Z" fill="#FF7262"/>
<path d="M56.5038 38.8887C56.5038 43.4779 52.7835 47.1981 48.1944 47.1981C43.6052 47.1981 39.885 43.4779 39.885 38.8887C39.885 34.2996 43.6052 30.5793 48.1944 30.5793C52.7835 30.5793 56.5038 34.2996 56.5038 38.8887Z" fill="#1ABCFE"/>
</g>
<defs>
<clipPath id="clip0_46_363">
<rect width="79.77" height="77.7757" fill="white" transform="translate(0 0.000854492)"/>
</clipPath>
</defs>
</svg>
