<svg width="81" height="81" viewBox="0 0 81 81" fill="none" xmlns="http://www.w3.org/2000/svg">
<g clip-path="url(#clip0_46_275)">
<path d="M65.4564 28.3285C64.6151 28.048 63.7737 27.7832 62.9324 27.5339C63.0726 26.9574 63.1972 26.3809 63.3219 25.8044C65.2383 16.5185 63.9763 9.05548 59.7228 6.59378C55.6251 4.24113 48.9411 6.68726 42.1792 12.5767C41.5093 13.1531 40.8549 13.7608 40.2317 14.3684C39.811 13.9633 39.3748 13.5582 38.9385 13.1687C31.8494 6.87422 24.7448 4.22555 20.4913 6.70284C16.4092 9.07106 15.194 16.0978 16.9078 24.8852C17.0792 25.7577 17.2662 26.6146 17.4843 27.4871C16.4871 27.7676 15.5056 28.0792 14.5863 28.4064C6.26637 31.2887 0.299072 35.8382 0.299072 40.5435C0.299072 45.4046 6.65588 50.2813 15.303 53.2416C16.0041 53.4753 16.7053 53.709 17.422 53.9115C17.1882 54.8463 16.9857 55.7656 16.7987 56.716C15.1628 65.3631 16.4404 72.2185 20.5225 74.5712C24.7292 77.0017 31.8027 74.5088 38.6892 68.4792C39.2345 67.9962 39.7799 67.4976 40.3252 66.9679C41.0107 67.6379 41.7274 68.2767 42.4441 68.8999C49.1125 74.6335 55.7031 76.955 59.7695 74.6023C63.9763 72.1718 65.3473 64.8022 63.5712 55.8279C63.4309 55.1424 63.2751 54.4413 63.1038 53.7246C63.6023 53.5843 64.0853 53.4285 64.5683 53.2727C73.5582 50.2969 80.0708 45.4825 80.0708 40.5435C80.0708 35.8226 73.9321 31.242 65.4564 28.3285ZM44.3761 15.1007C50.172 10.0526 55.5784 8.07392 58.0401 9.49174C60.6732 11.003 61.6859 17.1106 60.0344 25.1345C59.9253 25.6642 59.8163 26.1784 59.6761 26.6925C56.2172 25.9135 52.7116 25.3526 49.1904 25.041C47.165 22.143 44.9526 19.3697 42.5532 16.7678C43.1608 16.1913 43.7529 15.646 44.3761 15.1007ZM26.3495 48.6298C27.1441 49.9853 27.9543 51.3407 28.8112 52.6651C26.3807 52.4002 23.9657 52.0107 21.5819 51.4966C22.2675 49.253 23.1244 46.9315 24.1215 44.5633C24.8382 45.9343 25.5705 47.2898 26.3495 48.6298ZM21.6287 29.8865C23.8722 29.3879 26.2561 28.9828 28.7333 28.6712C27.9076 29.9644 27.0974 31.2887 26.334 32.6287C25.5705 33.953 24.8227 35.3085 24.1215 36.6796C23.14 34.3581 22.3142 32.0833 21.6287 29.8865ZM25.8977 40.6214C26.926 38.4713 28.0478 36.368 29.2319 34.2958C30.416 32.2236 31.6936 30.2137 33.0335 28.235C35.3706 28.0636 37.7544 27.9701 40.185 27.9701C42.6155 27.9701 45.0149 28.0636 47.3364 28.235C48.6607 30.1981 49.9227 32.208 51.1224 34.2646C52.3221 36.3212 53.4439 38.4246 54.5034 40.5591C53.4595 42.7092 52.3377 44.8281 51.138 46.9159C49.9539 48.9881 48.6919 50.998 47.3675 52.9923C45.046 53.1637 42.6311 53.2416 40.185 53.2416C37.7388 53.2416 35.3706 53.1637 33.0803 53.0234C31.7248 51.0447 30.4472 49.0193 29.2475 46.9471C28.0478 44.8749 26.9416 42.7715 25.8977 40.6214ZM54.0359 48.5986C54.8305 47.2275 55.5784 45.8409 56.3107 44.4386C57.3078 46.6978 58.1803 48.9881 58.9438 51.3407C56.5288 51.8861 54.0827 52.3067 51.621 52.5872C52.4623 51.2784 53.2569 49.9385 54.0359 48.5986ZM56.2795 36.6796C55.5472 35.3085 54.7994 33.9374 54.0204 32.5975C53.2569 31.2732 52.4623 29.9644 51.6366 28.6712C54.145 28.9828 56.5444 29.4035 58.788 29.9177C58.0713 32.2236 57.2299 34.4672 56.2795 36.6796ZM40.2161 19.1516C41.8521 20.9278 43.3945 22.7974 44.8279 24.7294C41.743 24.5892 38.6425 24.5892 35.5576 24.7294C37.0844 22.7195 38.6581 20.8499 40.2161 19.1516ZM22.1428 9.6008C24.7603 8.07392 30.5718 10.2552 36.6949 15.6772C37.0844 16.0199 37.474 16.3939 37.879 16.7678C35.4641 19.3697 33.2361 22.143 31.195 25.041C27.6739 25.3526 24.1839 25.8979 20.725 26.6614C20.5225 25.8668 20.3511 25.0566 20.1797 24.2464C18.7151 16.7055 19.6811 11.0186 22.1428 9.6008ZM18.3256 50.6708C17.6712 50.4838 17.0324 50.2813 16.3936 50.0632C13.075 49.0193 9.30456 47.3677 6.57798 45.2021C5.00436 44.1114 3.94489 42.4287 3.64886 40.5435C3.64886 37.6923 8.57228 34.0465 15.6769 31.5692C16.565 31.2576 17.4687 30.9771 18.3724 30.7123C19.4318 34.0932 20.7094 37.4119 22.1896 40.6214C20.6938 43.8777 19.4007 47.2431 18.3256 50.6708ZM36.4924 65.9396C33.9216 68.2922 30.9458 70.1619 27.705 71.4395C25.9756 72.2653 23.9813 72.3432 22.2051 71.642C19.7279 70.2086 18.6996 64.7088 20.1018 57.3081C20.2732 56.4355 20.4601 55.563 20.6783 54.7061C24.1683 55.454 27.6895 55.9681 31.2574 56.233C33.314 59.1465 35.5731 61.9354 37.9881 64.5529C37.4895 65.0359 36.991 65.5034 36.4924 65.9396ZM40.3096 62.1536C38.7204 60.4397 37.1312 58.5389 35.5887 56.4979C37.0844 56.5602 38.6269 56.5914 40.185 56.5914C41.7897 56.5914 43.3634 56.5602 44.9214 56.4823C43.488 58.461 41.9455 60.3462 40.3096 62.1536ZM60.6732 66.8277C60.533 68.7285 59.5982 70.5047 58.1024 71.7044C55.6251 73.1378 50.3434 71.2681 44.641 66.3759C43.9866 65.815 43.3322 65.2073 42.6622 64.5841C45.046 61.951 47.2429 59.1621 49.2372 56.233C52.8051 55.937 56.3574 55.3917 59.863 54.5971C60.0188 55.2359 60.1591 55.8746 60.2837 56.4979C61.0471 59.8632 61.1718 63.3688 60.6732 66.8277ZM63.5088 50.0787C63.0726 50.219 62.6363 50.3592 62.1845 50.4838C61.0939 47.0873 59.754 43.7687 58.2115 40.5435C59.7072 37.3651 60.9692 34.0932 62.0287 30.7434C62.8389 30.9771 63.6179 31.2264 64.3658 31.4757C71.6262 33.9686 76.721 37.6767 76.721 40.5124C76.721 43.5661 71.2835 47.508 63.5088 50.0787ZM40.185 47.7417C44.1268 47.7417 47.3208 44.5477 47.3208 40.6058C47.3208 36.664 44.1268 33.47 40.185 33.47C36.2431 33.47 33.0491 36.664 33.0491 40.6058C33.0491 44.5477 36.2431 47.7417 40.185 47.7417Z" fill="#CEE393"/>
</g>
<defs>
<clipPath id="clip0_46_275">
<rect width="79.7718" height="79.7718" fill="white" transform="translate(0.299072 0.719971)"/>
</clipPath>
</defs>
</svg>
