<svg width="80" height="79" viewBox="0 0 80 79" fill="none" xmlns="http://www.w3.org/2000/svg">
<g clip-path="url(#clip0_46_364)">
<path d="M14.1253 0.777472H65.6445C67.5001 0.775723 69.3378 1.13992 71.0525 1.84921C72.7672 2.5585 74.3251 3.59896 75.6372 4.91105C76.9493 6.22315 77.9898 7.78111 78.6991 9.49577C79.4084 11.2104 79.7725 13.0481 79.7708 14.9037V64.4287C79.7725 66.2843 79.4084 68.122 78.6991 69.8366C77.9898 71.5513 76.9493 73.1093 75.6372 74.4213C74.3251 75.7334 72.7672 76.7739 71.0525 77.4832C69.3378 78.1925 67.5001 78.5567 65.6445 78.5549H14.1253C12.2697 78.5567 10.432 78.1925 8.71733 77.4832C7.00266 76.7739 5.4447 75.7334 4.13261 74.4213C2.82052 73.1093 1.78006 71.5513 1.07076 69.8366C0.361473 68.122 -0.00271919 66.2843 -0.000970294 64.4287V14.9037C-0.00271919 13.0481 0.361473 11.2104 1.07076 9.49577C1.78006 7.78111 2.82052 6.22315 4.13261 4.91105C5.4447 3.59896 7.00266 2.5585 8.71733 1.84921C10.432 1.13992 12.2697 0.775723 14.1253 0.777472V0.777472Z" fill="#330000"/>
<path d="M38.655 47.4439H26.2904L23.7643 55.2549C23.7361 55.3973 23.6556 55.5239 23.5388 55.61C23.4219 55.6961 23.2771 55.7354 23.1328 55.7202H16.884C16.5183 55.7202 16.4186 55.5208 16.5183 55.1219L27.2211 24.3101C27.3208 23.9777 27.4205 23.6121 27.5534 23.2132C27.6872 22.5009 27.754 21.7776 27.7529 21.0528C27.7429 20.9695 27.7648 20.8856 27.8141 20.8178C27.8634 20.75 27.9365 20.7033 28.0188 20.6871H36.6275C36.8934 20.6871 37.0263 20.7868 37.0596 20.953L49.1915 55.1884C49.2912 55.554 49.1915 55.7202 48.8591 55.7202H41.9124C41.7949 55.7316 41.6772 55.7011 41.5799 55.6342C41.4826 55.5674 41.412 55.4684 41.3805 55.3546L38.655 47.4439ZM28.2182 40.6966H36.6607C36.4613 39.9985 36.1954 39.1676 35.8962 38.3034C35.5971 37.4392 35.2979 36.4421 34.9988 35.4449C34.6997 34.4478 34.3673 33.4174 34.0349 32.387C33.7025 31.3566 33.4034 30.3927 33.1375 29.4288C32.8716 28.4649 32.6389 27.6339 32.4062 26.8362H32.3397C32.041 28.2849 31.6638 29.7162 31.2096 31.1239C30.7111 32.7194 30.2125 34.3813 29.6807 36.0432C29.2154 37.7383 28.7168 39.3005 28.2182 40.6966V40.6966Z" fill="#FF9A00"/>
<path d="M56.4375 26.3709C55.8919 26.3828 55.3494 26.2861 54.8415 26.0864C54.3336 25.8867 53.8706 25.5879 53.4793 25.2075C52.7178 24.3749 52.3122 23.2774 52.3492 22.1496C52.3295 21.6001 52.426 21.0527 52.6321 20.543C52.8383 20.0333 53.1496 19.5727 53.5458 19.1914C54.3447 18.4363 55.4047 18.0194 56.504 18.0281C57.8002 18.0281 58.7974 18.4269 59.5286 19.1914C60.265 19.9974 60.6584 21.0585 60.6255 22.1496C60.6458 22.7112 60.5533 23.2712 60.3535 23.7964C60.1536 24.3216 59.8506 24.8014 59.4622 25.2075C59.0705 25.6065 58.5978 25.9168 58.0761 26.1174C57.5543 26.3181 56.9955 26.4045 56.4375 26.3709V26.3709ZM52.7148 55.2217V29.6282C52.7148 29.2958 52.8477 29.1629 53.1469 29.1629H59.7281C60.0272 29.1629 60.1602 29.3291 60.1602 29.6282V55.2217C60.1602 55.5873 60.0272 55.7535 59.7281 55.7535H53.2134C53.1435 55.7592 53.0733 55.7491 53.0079 55.724C52.9425 55.6988 52.8836 55.6591 52.8356 55.608C52.7877 55.5568 52.7519 55.4955 52.731 55.4287C52.7101 55.3618 52.7045 55.291 52.7148 55.2217V55.2217Z" fill="#FF9A00"/>
</g>
<defs>
<clipPath id="clip0_46_364">
<rect width="79.7718" height="77.7775" fill="white" transform="translate(-0.000976562 0.777466)"/>
</clipPath>
</defs>
</svg>
