<svg width="78" height="78" viewBox="0 0 78 78" fill="none" xmlns="http://www.w3.org/2000/svg">
<rect width="78" height="78" rx="10" fill="#676767"/>
<path fill-rule="evenodd" clip-rule="evenodd" d="M51.5536 59.1587C47.2784 59.1587 44.5147 57.1205 43.1672 54.4549L46.9157 52.2836C47.9031 53.8957 49.1844 55.0794 51.4556 55.0794C53.3617 55.0794 54.5793 54.1257 54.5793 52.81C54.5793 50.8304 51.9382 50.0569 50.0738 49.2582C46.7516 47.8446 44.5466 46.0683 44.5466 42.3174C44.5466 38.8653 47.1779 36.2342 51.2915 36.2342C54.2168 36.2342 56.3237 37.2533 57.8354 39.9164L54.251 42.2193C53.4621 40.8056 52.6071 40.2466 51.2915 40.2466C49.9415 40.2466 49.0865 41.1021 49.0865 42.2193C49.0865 43.6011 49.9415 44.1599 51.9162 45.015C56.0543 46.7888 59.1853 48.1823 59.1853 52.7442C59.1853 56.8896 55.9293 59.1587 51.5536 59.1587ZM40.95 52.2178C40.95 56.988 38.0124 59.5092 33.9332 59.5092C30.2484 59.5092 28.0409 58.1 26.9556 55.65H26.9189H26.9017H26.8919L30.6379 53.0313C31.3607 54.3127 32.0124 55.2217 33.5902 55.2217C35.1043 55.2217 36.05 54.455 36.05 52.1544V36.05H40.95V52.2178ZM14 63H63V14H14V63Z" fill="#CEE393"/>
</svg>
