<svg width="81" height="79" viewBox="0 0 81 79" fill="none" xmlns="http://www.w3.org/2000/svg">
<g clip-path="url(#clip0_46_279)">
<path d="M14.8973 0.554938H66.4165C68.2721 0.553189 70.1098 0.917382 71.8245 1.62667C73.5391 2.33596 75.0971 3.37643 76.4092 4.68852C77.7213 6.00061 78.7617 7.55857 79.471 9.27324C80.1803 10.9879 80.5445 12.8256 80.5428 14.6812V64.2062C80.5445 66.0617 80.1803 67.8994 79.471 69.6141C78.7617 71.3288 77.7213 72.8867 76.4092 74.1988C75.0971 75.5109 73.5391 76.5514 71.8245 77.2607C70.1098 77.97 68.2721 78.3341 66.4165 78.3324H14.8973C13.0417 78.3341 11.204 77.97 9.4893 77.2607C7.77464 76.5514 6.21668 75.5109 4.90458 74.1988C3.59249 72.8867 2.55203 71.3288 1.84274 69.6141C1.13345 67.8994 0.769253 66.0617 0.771002 64.2062V14.6812C0.769253 12.8256 1.13345 10.9879 1.84274 9.27324C2.55203 7.55857 3.59249 6.00061 4.90458 4.68852C6.21668 3.37643 7.77464 2.33596 9.4893 1.62667C11.204 0.917382 13.0417 0.553189 14.8973 0.554938V0.554938Z" fill="#001E36"/>
<path d="M42.6511 55.5309H21.578C21.2124 55.5309 21.0462 55.3315 21.0462 54.9327V20.9632C21.0388 20.9085 21.0424 20.8529 21.0569 20.7996C21.0714 20.7463 21.0964 20.6965 21.1305 20.6531C21.1647 20.6097 21.2071 20.5736 21.2554 20.547C21.3038 20.5203 21.3569 20.5036 21.4118 20.4978H28.0595C28.1011 20.4903 28.1438 20.4912 28.185 20.5006C28.2262 20.51 28.265 20.5277 28.2992 20.5526C28.3334 20.5774 28.3622 20.6089 28.3838 20.6452C28.4054 20.6816 28.4195 20.7219 28.4251 20.7638V48.7836H43.7812C44.1136 48.7836 44.2133 48.9498 44.1468 49.2489L43.1829 55.0324C43.1777 55.1087 43.1574 55.1833 43.1232 55.2518C43.0889 55.3203 43.0414 55.3813 42.9835 55.4312C42.886 55.4987 42.7696 55.5336 42.6511 55.5309V55.5309Z" fill="#31A8FF"/>
<path d="M47.9692 28.9403H53.7859C53.9435 28.9441 54.0958 28.9976 54.2211 29.0931C54.3465 29.1886 54.4385 29.3213 54.4839 29.4721C54.6214 29.7073 54.7117 29.967 54.7498 30.2366C54.8163 30.569 54.8828 30.9346 54.916 31.267C54.9493 31.5994 54.9825 32.0315 54.9825 32.4636C55.9805 31.2985 57.1865 30.3292 58.539 29.6051C60.0575 28.7819 61.7646 28.3695 63.4915 28.4085C63.5462 28.4011 63.6018 28.4047 63.6551 28.4192C63.7083 28.4337 63.7581 28.4588 63.8015 28.4929C63.8449 28.527 63.8811 28.5694 63.9077 28.6177C63.9344 28.6661 63.9511 28.7193 63.9568 28.7741V35.3886C63.9568 35.6545 63.7906 35.7542 63.425 35.7542C61.2709 35.6252 59.1171 36.0126 57.143 36.8843C56.4697 37.1723 55.8598 37.5902 55.3481 38.1141V55.0656C55.3481 55.398 55.2152 55.5309 54.916 55.5309H48.4346C48.3733 55.5413 48.3105 55.539 48.2501 55.5243C48.1897 55.5097 48.1329 55.4829 48.0831 55.4456C48.0334 55.4083 47.9917 55.3612 47.9607 55.3073C47.9297 55.2535 47.91 55.1938 47.9028 55.1321V36.5851C47.9028 35.7874 47.9028 34.9565 47.8695 34.0923C47.8363 33.2281 47.8363 32.3639 47.803 31.4997C47.7698 30.7684 47.7033 30.0372 47.6036 29.306C47.5948 29.2667 47.5938 29.226 47.6008 29.1864C47.6077 29.1467 47.6224 29.1088 47.644 29.0748C47.6656 29.0408 47.6937 29.0115 47.7267 28.9884C47.7597 28.9653 47.797 28.949 47.8363 28.9403C47.8695 28.9071 47.9028 28.9071 47.9692 28.9403V28.9403Z" fill="#31A8FF"/>
</g>
<defs>
<clipPath id="clip0_46_279">
<rect width="79.7718" height="77.7775" fill="white" transform="translate(0.770996 0.554932)"/>
</clipPath>
</defs>
</svg>
