<svg width="78" height="78" viewBox="0 0 78 78" fill="none" xmlns="http://www.w3.org/2000/svg">
<rect width="78" height="78" rx="10" fill="#676767"/>
<path d="M29.0815 15C29.0815 15 31.066 15.1973 31.8623 17.1723C31.8623 17.1723 34.0449 22.3102 36.0273 27.2509C38.9265 34.0241 42.6016 42.7399 45.562 49.7836H17.3806C15.7922 49.7836 15 48.7951 15 48.7951C16.5864 51.5614 21.1496 60.2588 21.1496 60.2588C21.9417 61.2473 22.736 61.8372 23.9263 61.8372C26.507 61.8372 30.476 59.2703 30.476 59.2703L45.6029 49.8752C48.4857 56.7339 50.7071 62.0386 50.7071 62.0386H63.9985C64.1965 61.8413 44.9557 16.3831 44.7576 16.1838C44.5596 15.9865 44.1614 15 42.7731 15H29.0815ZM28.4894 16.7798C27.2991 16.7798 26.901 17.7663 26.703 17.9636L15.7942 43.6572C15.2001 45.4349 15.5962 47.6093 18.771 47.6093H27.2991L34.8391 29.6266C33.4064 26.0594 31.9513 22.5012 30.474 18.9521C30.2759 18.3602 29.6797 16.7798 28.4894 16.7798Z" fill="#CEE393"/>
</svg>
