<svg width="81" height="78" viewBox="0 0 81 78" fill="none" xmlns="http://www.w3.org/2000/svg">
<g clip-path="url(#clip0_46_282)">
<path d="M14.668 6.26898e-06H66.1873C68.0428 -0.00174263 69.8806 0.36245 71.5952 1.07174C73.3099 1.78103 74.8678 2.8215 76.1799 4.13359C77.492 5.44568 78.5325 7.00364 79.2418 8.71831C79.9511 10.433 80.3153 12.2707 80.3135 14.1263V63.6512C80.3153 65.5068 79.9511 67.3445 79.2418 69.0592C78.5325 70.7738 77.492 72.3318 76.1799 73.6439C74.8678 74.956 73.3099 75.9964 71.5952 76.7057C69.8806 77.415 68.0428 77.7792 66.1873 77.7775H14.668C12.8124 77.7792 10.9747 77.415 9.26005 76.7057C7.54539 75.9964 5.98743 74.956 4.67534 73.6439C3.36324 72.3318 2.32278 70.7738 1.61349 69.0592C0.904198 67.3445 0.540005 65.5068 0.541754 63.6512V14.1263C0.540005 12.2707 0.904198 10.433 1.61349 8.71831C2.32278 7.00364 3.36324 5.44568 4.67534 4.13359C5.98743 2.8215 7.54539 1.78103 9.26005 1.07174C10.9747 0.36245 12.8124 -0.00174263 14.668 6.26898e-06V6.26898e-06Z" fill="#001E36"/>
<path d="M18.4905 54.5439V20.3418C18.4905 20.1091 18.5902 19.9762 18.8229 19.9762C19.3879 19.9762 19.9197 19.9762 20.6842 19.9429C21.4487 19.9097 22.3129 19.9097 23.2103 19.8764C24.1077 19.8432 25.0716 19.8432 26.102 19.81C27.1324 19.7767 28.1296 19.7767 29.1267 19.7767C31.8522 19.7767 34.1124 20.1091 35.9738 20.8071C37.6423 21.3737 39.1638 22.3048 40.4277 23.5327C41.4988 24.6072 42.3263 25.8994 42.8541 27.3218C43.3572 28.707 43.6159 30.1691 43.6186 31.6428C43.6186 34.5013 42.9538 36.8612 41.6243 38.7225C40.2886 40.5813 38.4237 41.9944 36.2729 42.7776C34.0127 43.6085 31.5199 43.9077 28.7943 43.9077C27.9966 43.9077 27.4648 43.9077 27.1324 43.8744C26.8 43.8412 26.3347 43.8412 25.7032 43.8412V54.5107C25.7106 54.5654 25.707 54.621 25.6925 54.6743C25.678 54.7275 25.6529 54.7773 25.6188 54.8207C25.5847 54.8641 25.5423 54.9002 25.494 54.9269C25.4456 54.9536 25.3924 54.9703 25.3376 54.976H18.8893C18.6234 54.976 18.4905 54.8431 18.4905 54.5439ZM25.7364 26.3911V37.5592C26.2017 37.5924 26.6338 37.6257 27.0327 37.6257H28.7943C30.0919 37.6272 31.3817 37.4253 32.6167 37.0274C33.6763 36.7158 34.623 36.1039 35.3423 35.2657C36.0403 34.4348 36.3726 33.3047 36.3726 31.8422C36.4039 30.8036 36.1388 29.7775 35.6082 28.884C35.054 28.021 34.2389 27.3573 33.2815 26.9894C32.0337 26.5007 30.6985 26.2744 29.3594 26.3247C28.4952 26.3247 27.7307 26.3247 27.0992 26.3579C26.6448 26.3282 26.1888 26.3393 25.7364 26.3911V26.3911Z" fill="#31A8FF"/>
<path d="M64.3593 35.5316C63.3557 35.003 62.281 34.6224 61.1684 34.4015C59.9465 34.1248 58.6985 33.9799 57.4457 33.9694C56.7731 33.9462 56.1007 34.0247 55.4514 34.2021C55.0374 34.2882 54.6702 34.5252 54.4211 34.8669C54.2531 35.1365 54.1612 35.4466 54.1552 35.7643C54.1706 36.0805 54.2871 36.3834 54.4875 36.6285C54.8026 36.998 55.1864 37.3028 55.6176 37.5259C56.3821 37.9248 57.1798 38.2904 57.9775 38.6228C59.7733 39.2273 61.4914 40.0417 63.0962 41.0492C64.1878 41.7355 65.0904 42.6838 65.7221 43.8079C66.2562 44.8683 66.5188 46.0446 66.4865 47.2315C66.5135 48.8025 66.0613 50.3445 65.1902 51.6522C64.2631 52.979 62.9695 54.0069 61.4676 54.6104C59.8389 55.3084 57.8446 55.674 55.4514 55.674C53.934 55.6801 52.4198 55.5354 50.931 55.2419C49.7588 55.0393 48.6187 54.6816 47.5407 54.1783C47.4248 54.1201 47.3285 54.0294 47.2635 53.9172C47.1986 53.8049 47.1678 53.6762 47.1751 53.5467V47.7633C47.1722 47.7065 47.1828 47.6498 47.2059 47.5978C47.229 47.5459 47.264 47.5001 47.3081 47.4641C47.3549 47.4369 47.4093 47.4254 47.4631 47.4313C47.517 47.4373 47.5675 47.4605 47.6072 47.4974C48.8876 48.2522 50.2783 48.8017 51.7288 49.1261C53.0094 49.4593 54.3276 49.6268 55.6509 49.6246C56.9139 49.6246 57.8114 49.4584 58.4096 49.1593C58.6765 49.036 58.9027 48.8392 59.0616 48.592C59.2206 48.3447 59.3057 48.0572 59.3071 47.7633C59.3071 47.2979 59.0412 46.8659 58.5094 46.4338C57.9775 46.0017 56.8807 45.5031 55.252 44.8716C53.5812 44.2828 51.9945 43.4783 50.5322 42.4784C49.4907 41.7361 48.6277 40.7709 48.0061 39.6532C47.4756 38.6034 47.213 37.4387 47.2416 36.2629C47.2465 34.8446 47.6371 33.4543 48.3717 32.241C49.2161 30.9067 50.428 29.8448 51.8617 29.1831C53.4239 28.3854 55.385 28.0198 57.7449 28.0198C59.1241 28.0202 60.5016 28.1201 61.8664 28.3189C62.8478 28.4517 63.8083 28.7086 64.7249 29.0834C64.8709 29.1352 64.9905 29.2427 65.0573 29.3825C65.0956 29.5123 65.1179 29.6462 65.1238 29.7814V35.1992C65.1243 35.2638 65.1095 35.3276 65.0806 35.3854C65.0517 35.4432 65.0096 35.4933 64.9576 35.5316C64.7642 35.6011 64.5527 35.6011 64.3593 35.5316Z" fill="#31A8FF"/>
</g>
<defs>
<clipPath id="clip0_46_282">
<rect width="79.7718" height="77.7775" fill="white" transform="translate(0.541748)"/>
</clipPath>
</defs>
</svg>
