<svg width="81" height="79" viewBox="0 0 81 79" fill="none" xmlns="http://www.w3.org/2000/svg">
<g clip-path="url(#clip0_46_365)">
<path d="M14.6687 0.777472H66.188C68.0436 0.775723 69.8813 1.13992 71.5959 1.84921C73.3106 2.5585 74.8686 3.59896 76.1807 4.91105C77.4928 6.22315 78.5332 7.78111 79.2425 9.49577C79.9518 11.2104 80.316 13.0481 80.3142 14.9037V64.4287C80.316 66.2843 79.9518 68.122 79.2425 69.8366C78.5332 71.5513 77.4928 73.1093 76.1807 74.4213C74.8686 75.7334 73.3106 76.7739 71.5959 77.4832C69.8813 78.1925 68.0436 78.5567 66.188 78.5549H14.6687C12.8132 78.5567 10.9755 78.1925 9.26079 77.4832C7.54612 76.7739 5.98816 75.7334 4.67607 74.4213C3.36398 73.1093 2.32351 71.5513 1.61422 69.8366C0.90493 68.122 0.540738 66.2843 0.542487 64.4287V14.9037C0.540738 13.0481 0.90493 11.2104 1.61422 9.49577C2.32351 7.78111 3.36398 6.22315 4.67607 4.91105C5.98816 3.59896 7.54612 2.5585 9.26079 1.84921C10.9755 1.13992 12.8132 0.775723 14.6687 0.777472V0.777472Z" fill="#00005B"/>
<path d="M19.4883 55.3214V21.1192C19.4883 20.8866 19.588 20.7536 19.8207 20.7536C20.3857 20.7536 20.9175 20.7536 21.682 20.7204C22.4465 20.6872 23.3107 20.6872 24.2081 20.6539C25.1055 20.6207 26.0695 20.6207 27.0998 20.5874C28.1302 20.5542 29.1274 20.5542 30.1245 20.5542C32.8501 20.5542 35.1102 20.8866 36.9716 21.5846C38.6401 22.1512 40.1616 23.0823 41.4255 24.3101C42.4966 25.3847 43.3241 26.6769 43.8519 28.0993C44.3551 29.4845 44.6137 30.9465 44.6164 32.4202C44.6164 35.2787 43.9516 37.6386 42.6221 39.5C41.2864 41.3588 39.4215 42.7719 37.2707 43.5551C35.0105 44.386 32.5177 44.6852 29.7921 44.6852C28.9944 44.6852 28.4626 44.6852 28.1302 44.6519C27.7978 44.6187 27.3325 44.6187 26.701 44.6187V55.2881C26.7084 55.3428 26.7048 55.3985 26.6903 55.4517C26.6758 55.505 26.6507 55.5548 26.6166 55.5982C26.5825 55.6416 26.5401 55.6777 26.4918 55.7044C26.4434 55.7311 26.3903 55.7478 26.3354 55.7535H19.8871C19.6212 55.7535 19.4883 55.6205 19.4883 55.3214ZM26.7342 27.1686V38.3367C27.1996 38.3699 27.6316 38.4031 28.0305 38.4031H29.7921C31.0897 38.4047 32.3795 38.2028 33.6145 37.8048C34.6741 37.4932 35.6208 36.8814 36.3401 36.0432C37.0381 35.2123 37.3705 34.0822 37.3705 32.6197C37.4017 31.581 37.1366 30.5549 36.606 29.6615C36.0518 28.7985 35.2367 28.1348 34.2793 27.7669C33.0315 27.2782 31.6963 27.0519 30.3572 27.1021C29.493 27.1021 28.7285 27.1021 28.097 27.1354C27.6426 27.1057 27.1866 27.1168 26.7342 27.1686V27.1686Z" fill="#9999FF"/>
<path d="M49.2697 29.0964H55.0864C55.244 29.1002 55.3963 29.1536 55.5216 29.2491C55.647 29.3447 55.7389 29.4773 55.7844 29.6282C55.8859 29.8956 55.9529 30.1748 55.9839 30.4591C56.0503 30.7915 56.1168 31.1572 56.15 31.4895C56.1833 31.8219 56.2165 32.254 56.2165 32.6861C57.2145 31.521 58.4205 30.5517 59.773 29.8276C61.318 28.9694 63.0579 28.523 64.8252 28.5313C64.8799 28.5239 64.9355 28.5276 64.9888 28.542C65.0421 28.5565 65.0919 28.5816 65.1353 28.6157C65.1787 28.6498 65.2148 28.6922 65.2415 28.7405C65.2681 28.7889 65.2848 28.8421 65.2906 28.8969V35.5114C65.2906 35.7773 65.1244 35.877 64.7587 35.877C63.553 35.8375 62.347 35.9492 61.169 36.2094C60.2089 36.4076 59.2728 36.7085 58.377 37.1068C57.734 37.3968 57.1571 37.8153 56.6819 38.3366V55.2881C56.6819 55.6205 56.5489 55.7534 56.2498 55.7534H49.7018C49.6405 55.7638 49.5778 55.7615 49.5173 55.7469C49.4569 55.7322 49.4001 55.7054 49.3504 55.6681C49.3006 55.6308 49.259 55.5838 49.228 55.5299C49.197 55.476 49.1773 55.4163 49.17 55.3546V36.8076C49.17 36.0099 49.17 35.179 49.1368 34.3148C49.1035 33.4506 49.1035 32.5864 49.0703 31.7222C49.0703 30.9577 49.0038 30.2265 48.9374 29.462C48.9285 29.4227 48.9276 29.3821 48.9345 29.3424C48.9414 29.3027 48.9561 29.2648 48.9777 29.2309C48.9994 29.1969 49.0275 29.1675 49.0605 29.1444C49.0935 29.1214 49.1307 29.105 49.17 29.0964C49.17 29.0631 49.2365 29.0631 49.2697 29.0964V29.0964Z" fill="#9999FF"/>
</g>
<defs>
<clipPath id="clip0_46_365">
<rect width="79.7718" height="77.7775" fill="white" transform="translate(0.54248 0.777466)"/>
</clipPath>
</defs>
</svg>
