<svg width="78" height="78" viewBox="0 0 78 78" fill="none" xmlns="http://www.w3.org/2000/svg">
<rect width="78" height="78" rx="10" fill="#676767"/>
<path d="M55.023 31.9586C54.5063 31.7864 53.9895 31.6237 53.4727 31.4705C53.5588 31.1164 53.6354 30.7623 53.7119 30.4082C54.8891 24.7043 54.1139 20.1201 51.5012 18.608C48.9842 17.1629 44.8785 18.6655 40.725 22.283C40.3135 22.6371 39.9115 23.0104 39.5287 23.3836C39.2703 23.1348 39.0023 22.886 38.7344 22.6467C34.3799 18.7803 30.0158 17.1533 27.4031 18.675C24.8957 20.1297 24.1492 24.4459 25.202 29.8436C25.3072 30.3795 25.4221 30.9059 25.5561 31.4418C24.9436 31.6141 24.3406 31.8055 23.776 32.0065C18.6654 33.777 15 36.5715 15 39.4617C15 42.4477 18.9047 45.4432 24.2162 47.2615C24.6469 47.4051 25.0775 47.5487 25.5178 47.6731C25.3742 48.2473 25.2498 48.8119 25.135 49.3957C24.1301 54.7072 24.9148 58.9182 27.4223 60.3633C30.0063 61.8563 34.3512 60.325 38.5812 56.6213C38.9162 56.3246 39.2512 56.0184 39.5861 55.693C40.0072 56.1045 40.4475 56.4969 40.8877 56.8797C44.9838 60.4016 49.032 61.8276 51.5299 60.3824C54.1139 58.8895 54.9561 54.3627 53.865 48.8502C53.7789 48.4291 53.6832 47.9985 53.5779 47.5582C53.8842 47.4721 54.1809 47.3764 54.4775 47.2807C59.9996 45.4528 64 42.4955 64 39.4617C64 36.5619 60.2293 33.7483 55.023 31.9586ZM42.0744 23.8334C45.6346 20.7326 48.9555 19.5172 50.4676 20.3881C52.085 21.3164 52.707 25.068 51.6926 29.9967C51.6256 30.3221 51.5586 30.6379 51.4725 30.9537C49.3479 30.4752 47.1945 30.1307 45.0316 29.9393C43.7875 28.1592 42.4285 26.4557 40.9547 24.8574C41.3279 24.5033 41.6916 24.1684 42.0744 23.8334ZM31.0016 44.4287C31.4896 45.2614 31.9873 46.094 32.5137 46.9074C31.0207 46.7447 29.5373 46.5055 28.073 46.1897C28.4941 44.8115 29.0205 43.3856 29.633 41.9309C30.0732 42.7731 30.523 43.6057 31.0016 44.4287ZM28.1018 32.9156C29.4799 32.6094 30.9441 32.3606 32.4658 32.1692C31.9586 32.9635 31.4609 33.777 30.992 34.6C30.523 35.4135 30.0637 36.2461 29.633 37.0883C29.0301 35.6623 28.5229 34.2651 28.1018 32.9156ZM30.724 39.5096C31.3557 38.1889 32.0447 36.8969 32.7721 35.624C33.4994 34.3512 34.2842 33.1166 35.1072 31.9012C36.5428 31.7959 38.007 31.7385 39.5 31.7385C40.993 31.7385 42.4668 31.7959 43.8928 31.9012C44.7062 33.1071 45.4814 34.3416 46.2184 35.6049C46.9553 36.8682 47.6443 38.1602 48.2951 39.4713C47.6539 40.792 46.9648 42.0936 46.2279 43.376C45.5006 44.6489 44.7254 45.8834 43.9119 47.1084C42.4859 47.2137 41.0025 47.2615 39.5 47.2615C37.9975 47.2615 36.5428 47.2137 35.1359 47.1276C34.3033 45.9121 33.5186 44.668 32.7816 43.3951C32.0447 42.1223 31.3652 40.8303 30.724 39.5096ZM48.008 44.4096C48.4961 43.5674 48.9555 42.7156 49.4053 41.8543C50.0178 43.242 50.5537 44.6489 51.0227 46.094C49.5393 46.4289 48.0367 46.6873 46.5246 46.8596C47.0414 46.0557 47.5295 45.2326 48.008 44.4096ZM49.3861 37.0883C48.9363 36.2461 48.477 35.4039 47.9984 34.5809C47.5295 33.7674 47.0414 32.9635 46.5342 32.1692C48.075 32.3606 49.5488 32.619 50.927 32.9348C50.4867 34.3512 49.9699 35.7293 49.3861 37.0883ZM39.5191 26.3217C40.524 27.4127 41.4715 28.5612 42.352 29.7479C40.457 29.6617 38.5525 29.6617 36.6576 29.7479C37.5955 28.5133 38.5621 27.3649 39.5191 26.3217ZM28.4176 20.4551C30.0254 19.5172 33.5951 20.8571 37.3563 24.1875C37.5955 24.3981 37.8348 24.6278 38.0836 24.8574C36.6002 26.4557 35.2316 28.1592 33.9779 29.9393C31.815 30.1307 29.6713 30.4656 27.5467 30.9346C27.4223 30.4465 27.317 29.9489 27.2117 29.4512C26.3121 24.8192 26.9055 21.326 28.4176 20.4551ZM26.0729 45.6824C25.6709 45.5676 25.2785 45.4432 24.8861 45.3092C22.8477 44.668 20.5316 43.6535 18.8568 42.3233C17.8902 41.6533 17.2395 40.6198 17.0576 39.4617C17.0576 37.7104 20.0818 35.4709 24.4459 33.9492C24.9914 33.7578 25.5465 33.5856 26.1016 33.4229C26.7523 35.4996 27.5371 37.5381 28.4463 39.5096C27.5275 41.5098 26.7332 43.577 26.0729 45.6824ZM37.2318 55.0614C35.6527 56.5065 33.8248 57.6549 31.8342 58.4397C30.7719 58.9469 29.5469 58.9948 28.4559 58.5641C26.9342 57.6836 26.3025 54.3053 27.1639 49.7594C27.2691 49.2235 27.384 48.6875 27.518 48.1612C29.6617 48.6205 31.8246 48.9363 34.0162 49.099C35.2795 50.8887 36.6672 52.6018 38.1506 54.2096C37.8443 54.5063 37.5381 54.7934 37.2318 55.0614ZM39.5766 52.7358C38.6004 51.683 37.6242 50.5155 36.6768 49.2617C37.5955 49.3 38.543 49.3192 39.5 49.3192C40.4857 49.3192 41.4523 49.3 42.4094 49.2522C41.5289 50.4676 40.5814 51.6256 39.5766 52.7358ZM52.085 55.6069C51.9988 56.7744 51.4246 57.8655 50.5059 58.6024C48.9842 59.4828 45.7398 58.3344 42.2371 55.3293C41.8352 54.9848 41.4332 54.6115 41.0217 54.2287C42.4859 52.6114 43.8354 50.8983 45.0604 49.099C47.252 48.9172 49.434 48.5822 51.5873 48.0942C51.683 48.4865 51.7691 48.8789 51.8457 49.2617C52.3146 51.3289 52.3912 53.4823 52.085 55.6069ZM53.8268 45.3188C53.5588 45.4049 53.2908 45.491 53.0133 45.5676C52.3434 43.4813 51.5203 41.4428 50.5729 39.4617C51.4916 37.5094 52.2668 35.4996 52.9176 33.442C53.4152 33.5856 53.8938 33.7387 54.3531 33.8918C58.8129 35.4231 61.9424 37.7008 61.9424 39.4426C61.9424 41.3184 58.6023 43.7397 53.8268 45.3188ZM39.5 43.8832C41.9213 43.8832 43.8832 41.9213 43.8832 39.5C43.8832 37.0787 41.9213 35.1168 39.5 35.1168C37.0787 35.1168 35.1168 37.0787 35.1168 39.5C35.1168 41.9213 37.0787 43.8832 39.5 43.8832Z" fill="#CEE393"/>
</svg>
