<svg width="78" height="78" viewBox="0 0 78 78" fill="none" xmlns="http://www.w3.org/2000/svg">
<path d="M68 0H10C4.47715 0 0 4.47715 0 10V68C0 73.5229 4.47715 78 10 78H68C73.5229 78 78 73.5229 78 68V10C78 4.47715 73.5229 0 68 0Z" fill="#676767"/>
<path d="M39.5 15C52.975 15 64 26.025 64 39.5C64 52.975 52.975 64 39.5 64C26.025 64 15 52.975 15 39.5C15 26.025 26.025 15 39.5 15ZM34.6 47.6156C34.9063 48.9938 34.9063 50.2188 34.6 51.2906L34.4469 51.75C34.4469 51.9031 34.2938 52.0563 34.2938 52.0563C33.9875 52.6688 33.6813 53.1281 33.2219 53.7406C31.8438 55.2719 29.8531 55.8844 28.9344 55.425C28.0156 54.9656 28.475 52.6688 30.1594 50.9844C31.9969 49.1469 34.4469 47.9219 34.4469 47.9219L34.6 47.6156ZM54.8125 25.4125C53.7406 21.125 46.5438 19.5938 39.6531 22.0438C35.6719 23.575 31.2313 25.8719 28.0156 28.7813C24.1875 32.3031 23.7281 35.3656 23.8813 36.5906C24.8 41.0313 30.925 44.0938 33.5281 46.2375C32.7625 46.5438 27.25 49.3 26.025 52.2094C24.6469 55.2719 26.1781 57.4156 27.25 57.5688C30.4656 58.4875 33.8344 56.8031 35.5188 54.2C37.2031 51.5969 37.05 48.3812 36.2844 46.6969C37.3563 46.3906 38.4281 46.2375 39.9594 46.5438C44.2469 47.0031 45.1656 49.7594 44.8594 50.8312C44.5531 51.9031 43.7875 52.5156 43.4813 52.8219C43.175 52.975 43.0219 53.1281 43.175 53.1281C43.175 53.2812 43.3281 53.2812 43.6344 53.2812C43.9406 53.2812 45.9312 52.3625 45.9312 50.2188C46.0844 47.6156 43.4812 44.7063 39.0406 44.7063C37.2031 44.7063 35.9781 44.8594 35.2125 45.1656C35.2125 45.0125 35.0594 45.0125 35.0594 45.0125C32.3031 42.1031 27.25 39.9594 27.4031 35.9781C27.4031 34.6 28.0156 30.7719 37.2031 26.1781C44.7063 22.35 50.8313 23.4219 51.9031 25.7188C53.4344 28.9344 48.6875 35.0594 40.8781 35.9781C37.8156 36.2844 36.2844 35.2125 35.9781 34.7531C35.5187 34.2938 35.5188 34.2938 35.3656 34.2938C35.0594 34.4469 35.2125 34.7531 35.3656 35.0594C35.6719 35.6719 36.5906 36.7438 38.275 37.3563C39.6531 37.8156 43.175 38.1219 47.4625 36.4375C52.2094 34.6 55.8844 29.5469 54.8125 25.2594V25.4125Z" fill="#CEE393"/>
</svg>
