<svg width="78" height="78" viewBox="0 0 78 78" fill="none" xmlns="http://www.w3.org/2000/svg">
<path d="M0 10C0 4.47715 4.47715 0 10 0H68C73.5229 0 78 4.47715 78 10V68C78 73.5229 73.5229 78 68 78H10C4.47715 78 0 73.5229 0 68V10Z" fill="#676767"/>
<path d="M0 10C0 4.47715 4.47715 0 10 0H68C73.5229 0 78 4.47715 78 10V68C78 73.5229 73.5229 78 68 78H10C4.47715 78 0 73.5229 0 68V10Z" fill="#676767"/>
<path fill-rule="evenodd" clip-rule="evenodd" d="M27.2233 63.4837L15 14L64 28.1074L27.2233 63.4837Z" stroke="#CEE393" stroke-width="2" stroke-miterlimit="10" stroke-linejoin="round"/>
<path fill-rule="evenodd" clip-rule="evenodd" d="M39.491 21.0551L45.5982 45.8043L21.1118 38.7483L39.491 21.0551Z" stroke="#CEE393" stroke-width="2" stroke-miterlimit="10" stroke-linejoin="round"/>
<path fill-rule="evenodd" clip-rule="evenodd" d="M33.415 42.1051L30.3816 29.8105L42.5469 33.3027L33.415 42.1051Z" stroke="#CEE393" stroke-width="2" stroke-miterlimit="10" stroke-linejoin="round"/>
<path fill-rule="evenodd" clip-rule="evenodd" d="M27.3472 17.5309L30.3806 29.8254L18.2153 26.3332L27.3472 17.5309Z" stroke="#CEE393" stroke-width="2" stroke-miterlimit="10" stroke-linejoin="round"/>
<path fill-rule="evenodd" clip-rule="evenodd" d="M51.6766 24.5394L54.71 36.834L42.5447 33.3418L51.6766 24.5394Z" stroke="#CEE393" stroke-width="2" stroke-miterlimit="10" stroke-linejoin="round"/>
<path fill-rule="evenodd" clip-rule="evenodd" d="M33.4165 42.1135L36.4499 54.4081L24.2847 50.9159L33.4165 42.1135Z" stroke="#CEE393" stroke-width="2" stroke-miterlimit="10" stroke-linejoin="round"/>
</svg>
