<svg width="81" height="78" viewBox="0 0 81 78" fill="none" xmlns="http://www.w3.org/2000/svg">
<g clip-path="url(#clip0_46_280)">
<path d="M14.8963 6.26898e-06H66.4155C68.2711 -0.00174263 70.1088 0.36245 71.8235 1.07174C73.5382 1.78103 75.0961 2.8215 76.4082 4.13359C77.7203 5.44568 78.7608 7.00364 79.4701 8.71831C80.1793 10.433 80.5435 12.2707 80.5418 14.1263V63.6512C80.5435 65.5068 80.1793 67.3445 79.4701 69.0592C78.7608 70.7738 77.7203 72.3318 76.4082 73.6439C75.0961 74.956 73.5382 75.9964 71.8235 76.7057C70.1088 77.415 68.2711 77.7792 66.4155 77.7775H14.8963C13.0407 77.7792 11.203 77.415 9.48833 76.7057C7.77366 75.9964 6.2157 74.956 4.90361 73.6439C3.59152 72.3318 2.55105 70.7738 1.84176 69.0592C1.13247 67.3445 0.768277 65.5068 0.770026 63.6512V14.1263C0.768277 12.2707 1.13247 10.433 1.84176 8.71831C2.55105 7.00364 3.59152 5.44568 4.90361 4.13359C6.2157 2.8215 7.77366 1.78103 9.48833 1.07174C11.203 0.36245 13.0407 -0.00174263 14.8963 6.26898e-06V6.26898e-06Z" fill="#470137"/>
<path d="M42.7167 20.4415L32.7453 36.8944L43.3815 54.3445C43.4515 54.4649 43.4751 54.6067 43.448 54.7434C43.4147 54.8763 43.2818 54.7766 43.0824 54.8098H35.4708C34.939 54.8098 34.5734 54.7766 34.3407 54.4442C33.6427 53.0482 32.9115 51.6854 32.2134 50.2894C31.5154 48.8934 30.751 47.5307 29.9533 46.1014C29.1555 44.6722 28.3578 43.2429 27.5601 41.7804H27.4936C26.7956 43.2097 26.0311 44.6389 25.2667 46.0682C24.5022 47.4974 23.7377 48.9267 23.0065 50.3227C22.2752 51.7187 21.4775 53.1479 20.713 54.5107C20.5801 54.8431 20.3142 54.8763 19.9485 54.8763H12.6361C12.5032 54.8763 12.4035 54.9428 12.4035 54.7766C12.3886 54.7144 12.3869 54.6497 12.3983 54.5868C12.4098 54.5239 12.4342 54.464 12.4699 54.411L22.807 37.4595L12.7358 20.4083C12.6361 20.2753 12.6029 20.1424 12.6694 20.0759C12.7099 20.0285 12.7613 19.9917 12.8192 19.9685C12.8771 19.9453 12.9397 19.9366 13.0018 19.9429H20.5468C20.704 19.9464 20.8603 19.9687 21.0122 20.0094C21.1453 20.0811 21.2593 20.1837 21.3445 20.3086C21.9761 21.7378 22.7073 23.167 23.4718 24.5963C24.2363 26.0255 25.034 27.4215 25.8649 28.8175C26.6959 30.2135 27.3939 31.6096 28.0919 33.0388H28.1584C28.8564 31.5763 29.5876 30.1471 30.3189 28.7511C31.0501 27.3551 31.8146 25.9591 32.5791 24.563C33.3435 23.167 34.0748 21.7378 34.806 20.375C34.8312 20.2442 34.9019 20.1265 35.0055 20.0426C35.1371 19.97 35.2902 19.9465 35.4376 19.9762H42.4508C42.4901 19.9674 42.5308 19.9664 42.5704 19.9733C42.6101 19.9802 42.648 19.9949 42.682 20.0166C42.7159 20.0382 42.7453 20.0663 42.7684 20.0993C42.7915 20.1323 42.8078 20.1695 42.8164 20.2088C42.8497 20.2421 42.7832 20.375 42.7167 20.4415V20.4415Z" fill="#FF61F6"/>
<path d="M58.0727 55.5078C55.6089 55.5482 53.1673 55.0372 50.9265 54.0121C48.8417 53.0372 47.0944 51.4635 45.9075 49.4917C44.6777 47.4641 44.0794 44.938 44.0794 41.9134C44.0457 39.4536 44.6774 37.0304 45.9075 34.9001C47.1689 32.7349 48.9958 30.954 51.1924 29.7482C53.5191 28.4519 56.3111 27.8204 59.6017 27.8204C59.8348 27.8177 60.0679 27.8288 60.2997 27.8536C60.5988 27.8868 60.9312 27.8868 61.33 27.9201V17.4168C61.33 17.1841 61.4298 17.0512 61.6624 17.0512H68.4098C68.4843 17.0411 68.5599 17.0594 68.6215 17.1025C68.683 17.1457 68.7261 17.2104 68.7422 17.2838V48.9931C68.7422 49.5914 68.7754 50.2562 68.8086 50.9874C68.8419 51.7186 68.9084 52.3502 68.9416 52.9152C68.9487 53.0275 68.9204 53.1391 68.8608 53.2345C68.8012 53.3299 68.7132 53.4042 68.6092 53.447C66.8682 54.1787 65.0511 54.7138 63.1914 55.0425C61.5021 55.3471 59.7893 55.5028 58.0727 55.5078V55.5078ZM61.33 48.8601V34.2353C61.0341 34.1639 60.7345 34.1084 60.4326 34.0691C60.067 34.0359 59.7014 34.0027 59.3358 34.0027C58.0329 33.988 56.7453 34.2842 55.5798 34.8669C54.444 35.4328 53.4715 36.2794 52.7546 37.3265C52.0233 38.3901 51.6577 39.8194 51.6577 41.5477C51.6288 42.7143 51.8205 43.8759 52.2228 44.9713C52.5442 45.8571 53.0546 46.6624 53.7185 47.3312C54.3593 47.9427 55.1329 48.3978 55.9787 48.6607C56.869 48.9523 57.8006 49.0982 58.7375 49.0928C59.236 49.0928 59.7014 49.0596 60.1335 49.0263C60.5396 49.0553 60.9472 48.9987 61.33 48.8601V48.8601Z" fill="#FF61F6"/>
</g>
<defs>
<clipPath id="clip0_46_280">
<rect width="79.7718" height="77.7775" fill="white" transform="translate(0.77002)"/>
</clipPath>
</defs>
</svg>
